<svg xmlns="http://www.w3.org/2000/svg" viewBox="0 0 417.9 417.9"><path d="M365.6 79.4C364.6 35.4 328 0 284 0h-1.4c-17.8 0-34.2 9.4-44 25a35 35 0 0 1-59.4 0c-9.7-15.6-26-25-44-25H134C90 0 53.3 35.6 52.2 79.4A81.7 81.7 0 0 0 56 106l29 90.6C85 232 92.5 286 109.2 322l37.2 80.3a23 23 0 0 0 21.3 15.7 22.6 22.6 0 0 0 9.4-2l1-.4a22.6 22.6 0 0 0 12.6-20.3 6.5 6.5 0 0 0-.2-1.8c-7.4-26-22.2-98.8-2.3-125.2 5-6.6 12-9.8 21-9.8s15.5 3 20.4 9.6c20 26.3 5.4 99.2-1.8 125a6.5 6.5 0 0 0-.2 1.8 23.6 23.6 0 0 0 12 20.2 6.5 6.5 0 0 0 2 1 21.2 21.2 0 0 0 6.8 1.8h1.8a22.6 22.6 0 0 0 21.4-15.3l37.4-81c16.6-35.7 24-89.6 24-125l29-90.7a81.7 81.7 0 0 0 3.8-26.4zM209 245.6c-13.3 0-23.8 5-31.2 15-23.5 31-8 103.7-2 128.3-8.6-30.8-25-89.3-30-106.4 2.6-14.3 7.4-26 14.5-35.4a58.8 58.8 0 0 1 16.6-15 6.5 6.5 0 0 0 2.3-1.4 62.3 62.3 0 0 1 29.8-7.3c19.8 0 37 8.3 48.4 23.4 7.4 9.6 12.2 21.6 15 36.5-6 19.8-24.2 84.7-32 112 3-11 26-100.3-.5-135.4-7.7-9.5-18-14.4-31-14.4zm-108.7-165A33.8 33.8 0 0 1 129 48.5l-28.6 36.2a34.6 34.6 0 0 1 0-4zM141 54.3A83.3 83.3 0 0 0 156.6 71l-44.3 53.4-7.7-24zm26.3 24.3a82.2 82.2 0 0 0 24 9.3l-66.5 75.8L117 139zm146.7-12L171.2 220.3a71.8 71.8 0 0 0-21.5 19 84.4 84.4 0 0 0-10.4 18.4c-2.2-10.8-3.8-22-5-33.3L297 50.6a34.2 34.2 0 0 1 17 16zM287 183a6.3 6.3 0 0 0-.3 1l-1.7 10.6a6.5 6.5 0 0 0 0 1v2.7l-24.4 33a70.2 70.2 0 0 0-18.8-13.4l53.2-60.4zM316 91.4L305 126.7 228.6 213a78.2 78.2 0 0 0-19.8-2.4 81.5 81.5 0 0 0-11.8.8L317.6 81.7a33.5 33.5 0 0 1-1.4 9.8zm-36.7-41.2a6 6 0 0 1 1.6-1.7zM133.2 206.7c-.2-3.8-.2-7.5-.2-11a6.5 6.5 0 0 0 0-1l-1.8-11a6.6 6.6 0 0 0-.2-1l-1.6-4.8L207 89.5h2a82.6 82.6 0 0 0 48-15.3zM349.6 102l-29.3 91.6a7 7 0 0 0-.3 2c0 34-7 86.4-23 120.7l-37.5 81.2-.3.7a9.6 9.6 0 0 1-7.8 6.6c6.7-23.8 29-103 34-120a6.5 6.5 0 0 0 .2-1 289.6 289.6 0 0 0 7-31 6.5 6.5 0 0 0-12.7-2.3l-1.6 7.8a86 86 0 0 0-9.2-17l15.2-20.6a6.5 6.5 0 0 0 12.5-2c.5-8 .8-15.6.8-22.7l1.5-9.7L317 132l11.6-36.6a46.7 46.7 0 0 0 2-15 45.7 45.7 0 0 0-2.8-14.5l-.2-.7A47.3 47.3 0 0 0 297.2 37l-.6-.2A46 46 0 0 0 284 35h-1.2a17.2 17.2 0 0 0-14.4 8.5 70 70 0 0 1-119 0 17.2 17.2 0 0 0-14.3-8.5H134a46.6 46.6 0 0 0-44.5 60.4L91 101l27.4 85.3 1.5 9.8c0 28 4.8 62.7 12.6 88.7 5.2 17 27.3 96.2 34 120a10.2 10.2 0 0 1-8-7l-.4-.7-37.4-80.7C105 282 97.8 229.6 98 195.6a6.5 6.5 0 0 0-.3-2L68.4 102a68.7 68.7 0 0 1-3-22.3C66.3 43 97 13 133.8 13h1.3c13.3 0 25.6 7 33 19a48 48 0 0 0 81.5 0c7.3-12 19.6-19 33-19h1.2c37 0 67.6 30 68.6 66.8a68.6 68.6 0 0 1-3 22.2z"/></svg>