<svg xmlns="http://www.w3.org/2000/svg" viewBox="0 0 474.1 473.5"><path fill="#39c" d="M473.8 249c-6.3 122.7-110 224.4-236.5 224.5S6.5 372 .3 249C-6.4 117 101.3 0 237 0S480.7 117 474 249z"/><path fill="#fff" d="M324 93.7H150.2a54.7 54.7 0 0 0-54.7 54.7V322a55 55 0 0 0 54.8 54.6H324a55 55 0 0 0 54.7-54.8V148.3A54.7 54.7 0 0 0 324 93.7zm15.6 32.6h6.4v48h-47.8l-.2-48h41.6zM196.8 206a49.6 49.6 0 0 1 80.8 0 48.8 48.8 0 0 1 9.4 29 49.8 49.8 0 1 1-90.2-29zM351 322a27 27 0 0 1-27 27H150.3a27 27 0 0 1-27-27V206h42a80 80 0 0 0-5.6 29 77.5 77.5 0 0 0 155 0 75.7 75.7 0 0 0-5.8-29H351v116z"/></svg>