<svg xmlns="http://www.w3.org/2000/svg" viewBox="0 0 90 90"><circle cx="45" cy="45" r="45" fill="#7c519b"/><path fill="#fff" d="M44.8 26.4c.3-.3.5-.3 1.5-.3H48a17 17 0 0 1 5.7 1.8 15.4 15.4 0 0 1 4.5 3.3 14.8 14.8 0 0 1 3 4.4 20.4 20.4 0 0 1 2 8.3v1.6a1 1 0 0 1-2-.2 3 3 0 0 1-.2-1 22 22 0 0 0-.3-3.2 14.6 14.6 0 0 0-5.7-9.3 15 15 0 0 0-8.6-3c-1.2 0-1.4 0-1.6-.3a1.2 1.2 0 0 1 0-1.8zm7.2 8a11.7 11.7 0 0 0-4.7-1.5 1.5 1.5 0 0 1-1.2-.5 1 1 0 0 1 0-1.4c.3-.4.8-.5 2.3-.3a11.8 11.8 0 0 1 8.4 5 12 12 0 0 1 2 5.4 10 10 0 0 1 0 2.4 1 1 0 0 1-1.7.6c-.5-.2-.6-.6-.6-1.6a9.7 9.7 0 0 0-1-4.5 9.3 9.3 0 0 0-3.4-3.7zm2 8a1.2 1.2 0 0 1-1.3 0c-.3-.2-.4-.5-.5-1a5.7 5.7 0 0 0-.5-2 3.5 3.5 0 0 0-3-2c-.8 0-1-.2-1.3-.5a1 1 0 0 1 .3-1.8h2a5.8 5.8 0 0 1 2.8 1.4 6 6 0 0 1 1.8 3.8c.2 1.2.2 1.6-.2 2zm9.2 16a13.5 13.5 0 0 1-3.4 4.3 5 5 0 0 1-3 1.2 4.3 4.3 0 0 1-2.2-.6 48.4 48.4 0 0 1-20.8-16 45.4 45.4 0 0 1-6.5-11.8c-1-2.4-1-3.4-.2-4.6a13.6 13.6 0 0 1 2.7-2.5 9 9 0 0 1 3-1.7 3.3 3.3 0 0 1 1.4 0l.8.5c1.2.8 4.4 5 5.4 7a4 4 0 0 1 .6 2.6c-.2.6-.5 1-2 2l-1.2 1.2a2.8 2.8 0 0 0-.4 1.4 10.2 10.2 0 0 0 1.5 4.3 18.3 18.3 0 0 0 3 3.5 16.8 16.8 0 0 0 4 2.8c2 1 3 1 3.8.7l.5-.3 1-1.3c1-1.2 1.2-1.4 2-1.7a3.3 3.3 0 0 1 2.5.2l3 2a45.4 45.4 0 0 1 4.4 3.5 2.8 2.8 0 0 1 .2 3z"/></svg>