<svg xmlns="http://www.w3.org/2000/svg" viewBox="0 0 743.4 558.6"><path fill="#f1f5f8" fill-opacity=".9" d="M731.4 407.6c-9.8-10-42.4-15.6-44.7-26.5-1-5.2 11.7-34.3 13.2-40.3 3-11.8 8.4-28.6 7-41-2-19.7-9.3-14.3-18-26.6-6.4-8.8-2-.5-3.7-19.6-1-10.5 1.6-27.3-6-36.3s-21.8-3-26.7-7.8 3-34.2 0-42.5c-5-14-8.2-17.4-22.6-20.3s-32.4 5.4-44 10.4c-5 2-35.4 23.5-38 22.2-5.2-2.4-15-41.6-19.6-48.4-12.8-19-31.8-34.2-48.5-49.6C455.4 58.5 410 3.8 375 .2s-86 55.3-110.5 77.5c-17 15.3-35.5 30.2-49 48.8-2 2.8-25.4 50.7-23.3 50.6-7.8.3-28.2-17.4-36.5-21-12.3-5-34.5-14-48-9.5-33.7 11.5-2.2 47-17.5 62.7-6 6.2-19.4-2-28 10.2-9.6 14 3 36.5-3.7 49-9 17-24.2 12-21.5 39.7 1.8 18 24.5 67 17 78.2C43 402.2 6.3 396 .5 423.6s38.2 57 59 67c36.7 17.2 69.2 13.8 107.7 12.4 16-.5 9-4.3 21.7 2.8 8.5 4.8 16.8 18.8 25 25.2a122.8 122.8 0 0 0 76.4 27.2c13.6 0 27.5-1.5 40.4-5.7C342 548.8 360 530.2 369 529s23.6 15 32.8 19.3c13.3 6 28 9 42.4 10a126 126 0 0 0 88.4-30c9.6-8 19-26.5 31.3-28.7 10-1.8 29.8 6.8 41.4 7 35.5 1.3 180-43 126-99zm-73.7-174a7 7 0 0 1 4.5-3.3c5.2 1.5 2.2 34 1.7 37.6-2.6 19.3-8.6 35-25.4 46-7.8 5.2-70.5 24.2-74.6 11.4-.7-2.6 86.3-82.8 93.7-91.7zm-116.6-13c-3.4-20.4 58.5-52 74.6-52 20 .2 14.5-5.2 17.5 16.6 2.2 15-2.8 34-7 48.4-9.6 32-30 55.2-56.5 74.5-6.4 4.8-68.2 43-73 34-1.2-2.3 28.3-35.6 31.8-42a126 126 0 0 0 12.8-79.3zM370.3 403.4c-30 0-36.6-.6-57.7-22.6a529.7 529.7 0 0 1-45.7-53.4C241.8 293 217 253 213 209.6c-4-45.8 19.5-73.7 51-103.4 18-17 36.4-33.5 55.5-49.2 10.7-8.8 32.7-33.4 48-34 30-1.5 75.7 53 97 72 31.6 28.7 61.8 54.8 63.3 100.5S505 282.7 480.3 318a509.8 509.8 0 0 1-46.4 56.6c-24 25.6-28.2 28.7-63.7 28.6M110.8 171c.2-12.8 42.5 6.4 49 10 20 10.8 37 25 41.6 46.5 5.4 25 0 46.2 12.8 70.8 3.2 6.3 34 41.5 32.4 44-8 13.8-88.2-46-95.3-52.8-33.5-33-41.3-73-40.5-118.5zm-31 63.4c1-7.5 40.2 38.3 47.7 45.7s53.3 40 51.4 45.7c-4 12-65.7-6.3-72-10-28.3-16.6-32-51.3-27.3-81.3zm81 249.4c-36.8 6.4-76.6.3-108-20.7C30 448 9.6 430 40 413.4c37.8-21 43.5-2 67.6 22.3 21 21.4 47.3 30.8 75.4 39a52 52 0 0 1-22 9.2zM148.2 456c-31.2-13.6-52.4-40.6-67-70.5-4.2-8.4-34.7-86-24.2-90.7 0 0 43 34.3 49.2 36.6 22.5 8.5 48.7 7.3 72.4 8.3 49.2 2 87.2 15.4 125 48 10 8.7 40.5 31.6 36.8 44.3s-52 26-64.3 29.2C235.7 472 187.3 473 148.3 456zm398.4 24.6c-20.5 32.8-53.5 56.3-93 57.2-19.6.4-41.7-4-57.4-16.3s-14-32-25.3-42.8c-6.3 44.7-49.7 62.6-90.4 58.6-18.7-2-35.5-9-50.6-20-3.6-2.6-39.8-33.4-35-40.6 3.3-4.7 41.6-.8 48.2-1.3a240.3 240.3 0 0 0 49-9.3c12.6-3.6 74-25.7 91-21.7 19.7 4.6 54 18.3 73.4 23.5a245.8 245.8 0 0 0 48.3 7.8c6.4.4 46.5-2.7 41.7 5zM509 468.2c-17.5-1-103.5-13.6-108-37.7-3.8-20.6 64.3-63.6 80.2-72 37.7-20 76.2-17.4 117.5-20.5 20.3-1.5 38-4.3 55.5-15.2 2.8-1.7 30-29 32-28 7 3.4-12 61.5-14.6 68.6-9 24.8-22.3 49.5-41.2 68.2-32.7 32.2-77 39.4-121.5 36.6zm210-33.7c-15.6 25-42.5 39.4-70.3 46.7-11.2 3-85 14-87-6.3.3 3.2 72-37.4 77.5-43.4 16-17.4 15-30.4 41.5-26 9.8 1.7 47.6 13.7 38.2 29z"/></svg>
