<svg xmlns="http://www.w3.org/2000/svg" width="49.1" height="64" viewBox="0 0 49.1 64"><title>location-pin</title><path d="M49.1,24.5A24.5,24.5,0,0,0,0,24H0c0,.1,0,.2,0,.4v.2c0,.2,0,.5,0,.7C.3,41.2,18.3,58,24.5,64,41.9,49.9,47,36.8,48.5,29.8v-.7c.1-.8.2-1.4.3-2h0A15.7,15.7,0,0,0,49.1,24.5Z" fill="#264796"/><path d="M41.5,30c-.5-.5-2-.7-2.1-1.2a12.5,12.5,0,0,1,.6-1.9,6.4,6.4,0,0,0,.3-1.9c-.1-.9-.4-.7-.9-1.3s-.1,0-.2-.9.1-1.3-.3-1.7-1-.1-1.3-.4.1-1.6,0-2-.4-.8-1.1-1a4.3,4.3,0,0,0-2.1.5,17.5,17.5,0,0,1-1.8,1c-.2-.1-.7-2-.9-2.3a14.5,14.5,0,0,0-2.3-2.3c-1.2-1.1-3.3-3.6-4.9-3.8s-4,2.6-5.2,3.7a16.1,16.1,0,0,0-2.3,2.3,18.8,18.8,0,0,0-1.1,2.4c-.4,0-1.3-.8-1.7-1a4,4,0,0,0-2.3-.5c-1.6.5-.1,2.2-.8,3s-.9-.1-1.3.5.1,1.7-.2,2.3-1.1.6-1,1.9,1.2,3.1.8,3.7-2.2.5-2.5,1.8,1.8,2.7,2.8,3.2,3.3.7,5.1.6.4-.2,1,.1.8.9,1.2,1.2a5.8,5.8,0,0,0,3.6,1.3,6,6,0,0,0,1.9-.3c.5-.2,1.4-1.1,1.8-1.1s1.1.7,1.5.9a5.6,5.6,0,0,0,2,.5,5.9,5.9,0,0,0,4.2-1.4c.5-.4.9-1.3,1.5-1.4a14.8,14.8,0,0,1,2,.3C37.2,34.8,44,32.7,41.5,30ZM38,21.8l.2-.2c.2.1.1,1.6.1,1.8a2.8,2.8,0,0,1-1.2,2.2c-.4.2-3.3,1.1-3.5.5S37.7,22.3,38,21.8Zm-5.5-.6c-.2-1,2.7-2.5,3.5-2.4s.7-.3.8.8a5.9,5.9,0,0,1-.3,2.3,6.6,6.6,0,0,1-2.7,3.5c-.3.2-3.2,2-3.4,1.6s1.3-1.7,1.5-2A5.9,5.9,0,0,0,32.5,21.2Zm-8,8.6a2.8,2.8,0,0,1-2.7-1.1,24.9,24.9,0,0,1-2.2-2.5,11.6,11.6,0,0,1-2.5-5.5c-.2-2.2.9-3.5,2.4-4.9l2.6-2.3c.5-.4,1.5-1.6,2.3-1.6s3.6,2.5,4.6,3.4,2.9,2.6,3,4.7-1.1,4.1-2.2,5.8a24,24,0,0,1-2.2,2.7c-1.1,1.2-1.3,1.3-3,1.3M12.3,18.9c0-.6,2,.3,2.3.5a3.5,3.5,0,0,1,2,2.2c.3,1.2,0,2.2.6,3.3s1.6,2,1.5,2.1-4.2-2.2-4.5-2.5A7.1,7.1,0,0,1,12.3,18.9Zm-1.5,3c.1-.4,1.9,1.8,2.3,2.2s2.5,1.9,2.4,2.1-3.1-.3-3.4-.5S10.6,23.3,10.8,21.9Zm3.8,11.7a7,7,0,0,1-5.1-1c-1.1-.7-2-1.6-.6-2.3s2-.1,3.2,1.1a7.8,7.8,0,0,0,3.6,1.8ZM14,32.3A6.6,6.6,0,0,1,10.9,29c-.2-.4-1.6-4-1.1-4.3s2,1.6,2.3,1.7a11,11,0,0,0,3.4.4,8.9,8.9,0,0,1,5.9,2.3c.5.4,1.9,1.5,1.7,2.1s-2.4,1.2-3,1.4A9.5,9.5,0,0,1,14,32.3Zm18.8,1.2a5.4,5.4,0,0,1-4.4,2.7,4.3,4.3,0,0,1-2.7-.8c-.7-.5-.7-1.5-1.2-2-.3,2.1-2.3,2.9-4.3,2.8a4.8,4.8,0,0,1-2.4-.9c-.2-.1-1.9-1.6-1.6-1.9s2,0,2.3-.1l2.3-.4c.6-.2,3.5-1.2,4.3-1l3.5,1.1,2.3.4C31.1,33.3,33,33.1,32.8,33.5ZM31,32.9c-.8-.1-4.9-.6-5.1-1.8s3-3,3.8-3.4,3.6-.8,5.5-1a5.3,5.3,0,0,0,2.6-.7,18.7,18.7,0,0,1,1.5-1.3c.3.2-.6,2.9-.7,3.2a8.6,8.6,0,0,1-1.9,3.2A7.2,7.2,0,0,1,31,32.9Zm9.9-1.6a5.4,5.4,0,0,1-3.3,2.2c-.5.1-4,.7-4.1-.3a22,22,0,0,0,3.7-2c.7-.8.7-1.4,2-1.2S41.3,30.6,40.9,31.3Z" fill="#fff"/></svg>
