<svg xmlns="http://www.w3.org/2000/svg" xmlns:xlink="http://www.w3.org/1999/xlink" viewBox="0 0 512 512"><defs><mask id="a" x="0" y="13.4" width="512" height="512" maskUnits="userSpaceOnUse"><path d="M0,13.4H512v512H0Z" fill="#fff"/><path d="M164,222.4s5.8-35.7,34.8-57.5c0,0,47,32,119,.8,0,0,26.7,12.5,36,57.2,0,0,5.4-46-15.4-74.3,0,0-3.7-18.6-34.6-33.7l-11.5,7s-7.5-9.5-27.3-20.7c0,0-13.4,7-21,18.2l-12.7-8s-15.3,7-25.3,21L189,135l-9,16.2s-18.5,14.2-16.6,71.7l.5-.4Z"/></mask></defs><title>man</title><path d="M116.4,515.4s-6.7-90,78-98.4h38V399.4s26.7,11.6,53.8,1.4L287,417h44.4s76,3,72.5,99.3l-287.6-1Z" fill="#fff"/><path d="M404.7,519H114.6l1.4-23.6c2.7-46,39-81,80.3-81H228v4.7H198.8c-40,0-74.8,33.8-77.4,78l-1,16.3H404l-.6-16.3c-2.6-44.2-37.5-78-77.4-78H287.2v-4.7h41c41.5,0,77.7,35,80.4,81l1.3,23.6h-5.2Z" fill="#3b434f"/><path d="M257.7,467.4A41.5,41.5,0,0,1,216.3,426a39,39,0,0,1,1.7-11.5h12v4.7h-8.8a39.7,39.7,0,0,0-.6,7,37.1,37.1,0,0,0,74.2,0,39.7,39.7,0,0,0-.6-7h-8.7v-4.8h11.9a44.5,44.5,0,0,1,1.7,11.6,41.3,41.3,0,0,1-41.3,41.4Z" fill="#3b434f"/><path d="M233.4,397.4v26.5a24.9,24.9,0,0,0,49.7,0V398.1l4.2-1.4V424a29.3,29.3,0,1,1-58.6-.1v-28l4.7,1.5Z" fill="#3b434f"/><path d="M259.2,129.9c53,0,95,49.6,93.6,109.2l-1.4,63.3c-1.3,56.2-42.6,100.5-92.2,100.5s-91-44.3-92-100.5l-1.6-63.3C164.2,179.5,206.1,129.9,259.2,129.9Z" fill="#fff"/><path d="M357,237.1l-1.4,66C354.2,361.4,311,407.4,259,407.4s-95.2-46.2-96.6-104.6l-1.5-66c-1.5-62,42.4-113.5,98-113.5s99.5,51.7,98,113.7ZM259,130.4c-52.4,0-93.7,49-92.3,108.2l1.4,63c1.2,55.6,41.8,99.6,90.8,99.6s89.6-44,91-99.7l1.3-62.8c1.5-59-40-108.3-92.2-108.3Z" fill="#3b434f"/><path d="M354.4,248.1l-4.2,70s-19,80.7-92.2,90.3h-.9c-73-9.6-92-90.4-92-90.4l-4.3-70c19,84.4,35,89.7,35,89.7-3.2-25.6,23-23,23-23a330.2,330.2,0,0,0,39,4.4,334.5,334.5,0,0,0,38.7-4.5s26.3-2.5,23,23c0,0,16-5.2,35-89.5ZM307,346.4c-1.3-15-10.3-13.8-10.3-13.8a280.9,280.9,0,0,1-38.7,8.7v-.2c-9.8-1.3-22.4-4-38.4-8.7,0,0-9-1-10.2,13.8,0,0-3.7,15,8.5,21.3l15.3,16.3s10.4,3.4,10.2-9.4c0,0-1-9.5,5-11h19c6.2,1.8,5,11.3,5,11.3,0,12.8,10.4,9.5,10.4,9.5l15.4-16.4C310.6,361.4,307,346.4,307,346.4Z" fill="#3b434f" opacity="0.1" style="isolation:isolate"/><path d="M248.8,369.2h20.4a1.7,1.7,0,0,1,1.7,1.7,1.7,1.7,0,0,1-1.8,1.7H248.7a1.6,1.6,0,0,1-1.7-1.7,1.7,1.7,0,0,1,1.8-1.7Zm-18-20.4,2.4-3.3a52.1,52.1,0,0,0,26.5,7,53.9,53.9,0,0,0,26.7-7l2.5,3.4a59.3,59.3,0,0,1-29.2,7.6,58.3,58.3,0,0,1-29-7.6Z" fill="#3b434f"/><path d="M160.8,246.7a9.5,9.5,0,0,0-3-1.4,12,12,0,0,0-3.6-.8H152l-2.3.6a12.8,12.8,0,0,0-8.2,7.6,24.6,24.6,0,0,0-1.8,8.7v6l1,7a53.1,53.1,0,0,0,2.4,16.8c2.7,8.8,9,19.5,20.6,22.6-1.4-22.2-1.4-44.8-2.8-67Z" fill="#fff"/><path d="M162,247.6s-20-6.2-19.3,14.5c0,0,3,30,4.3,32.8,0,0,8,17.6,21,18.3h0v5.7s-23-3-27.3-29.5l-3.5-24s-2.7-32,23.7-23.8h0l1,6" fill="#3b434f"/><path d="M155.5,289.4a3.2,3.2,0,0,1-4.2,0l-2-21s2.8-10.3,15-5l.3,6s-10.7-3.7-10.5,1l1.5,19Z" fill="#3b434f"/><path d="M356.8,246.8a6.8,6.8,0,0,1,3-1.5,12.1,12.1,0,0,1,3.6-.7h2.2a10.3,10.3,0,0,1,2.4.5,12.7,12.7,0,0,1,8.2,7.7,24.1,24.1,0,0,1,1.8,8.7v5.8l-1,7.2a53.1,53.1,0,0,1-2.4,16.7c-2.6,8.6-9,19.3-20.6,22.4,1.4-22.2,1.4-44.8,2.8-67Z" fill="#fff"/><path d="M355.5,247.7s20.2-6.3,19.5,14.4c0,0-3,30-4.3,33,0,0-8,17.4-21,18h0l-.2,5.8s23-3,27.5-29.4l3.5-24s2.8-31.8-23.8-23.7h0l-1.2,6" fill="#3b434f"/><path d="M362.2,289.4a3.5,3.5,0,0,0,2,1,4.4,4.4,0,0,0,2.2-1l2-21s-2.8-10.3-15-4.8l-.4,6s10.8-3.8,10.6,1-1.4,18.8-1.4,18.8Z" fill="#3b434f"/><path d="M267,287.7h1.4c3,4.2,4.3,10.7,6,16.2a11.7,11.7,0,0,1-.5,6c-1.7,4.5-6.8,4.4-11,6.4a10.7,10.7,0,0,1-3.4,1.6c-1-.8-2-1-2.5-2.3s.4-2.6,1.6-3.2,8.6-2.2,9.4-4.2.3-4.4,0-5.5c-1-3-1.3-5.5-2.4-8s-2-3.8-1.3-6a8.2,8.2,0,0,0,2.6-1Z" fill="#3b434f"/><path d="M209.5,251.4A8.6,8.6,0,0,1,218,260a8.5,8.5,0,0,1-8.5,8.5,8.4,8.4,0,0,1-8.5-8.4,8.5,8.5,0,0,1,8.5-8.5Zm99.8,0a8.6,8.6,0,1,1-.1,17.1,8.4,8.4,0,0,1-8.5-8.4,8.5,8.5,0,0,1,8.5-8.5Z" fill="#3b434f"/><path d="M310.6,283A10.7,10.7,0,1,1,300,293.7,10.6,10.6,0,0,1,310.6,283Zm-103.2,0a10.7,10.7,0,1,1-10.7,10.7A10.6,10.6,0,0,1,207.4,283Z" fill="#edf1f1"/><path d="M286.3,239.8s25.7-14.6,43.7,1.6l5,.7s-6.2-22.5-51.3-8l1.3,4.3m1,0s26-15,43,4l9-.3s-11-24-56.3-9l4.3,6.3m-54.6.5s-25.4-14.5-43.6,1.5l-4.8.7s6-22.3,51-7.8l-1.2,4m-1,0s-26-14.7-43,4L180,242s11-23.8,56-8.8l-4.2,6" fill="#3b434f"/><path d="M163.8,242.9s3.2-51.4,35-74.2c0,0,45.8,31,117.8,0,0,0,32,14.5,36.7,74.2H355s9-68.4-14.5-95.5c0,0-5.8-20.8-36.7-36l-11,7s-7.6-9.2-27.4-20.5c0,0-14.7,6.5-22.2,18l-12-7.8s-16.7,7.7-26.5,21.3l-18,2.6-9.3,17S155,167.1,162,241.4l1.8,1.7Z" fill="#3b434f"/><g mask="url(#a)"><path d="M166.7,243.4s4.4-48,32-71.7c0,0,46,31.6,118,.4,0,0,28.8,10.7,33.6,70.4l8,.5s9.3-68.8-14.4-96c0,0-8.5-23.8-39.4-38.8L293,114.4s-7.3-8.6-27.2-20c0,0-15.5,5.7-23,17l-11.2-7s-18,8.4-27.7,22l-19,2.6-10,18.8s-22.6,19.3-15.5,93.4l7.2,2.2Z" fill="#3b434f"/></g><path d="M260,117.1c.8.4.5,1,.3,1.5l-.6,2.6a25.8,25.8,0,0,0-.4,4v5l.2.8v1.2a1.1,1.1,0,0,1,.3.8,2.2,2.2,0,0,0,.3,1.4v.3l.4,1v.3a5.3,5.3,0,0,0,.4,1.6l.7,2.5.6,1.6a18.8,18.8,0,0,1,1.2,3l.8,1.6,2.5,5,1,1.4c0,.3.3.7.4,1a.9.9,0,0,0,.3.5l.7,1.2.7,1,.8,1.2a22.6,22.6,0,0,1,1.3,2l1.5,2,3,4a3.2,3.2,0,0,1,1,1l.6.5v1.5a2.6,2.6,0,0,1-.4,1l-.4.4h-.3a1.8,1.8,0,0,1-1,.6,1.6,1.6,0,0,1-1-.5l-1.4-1.4c0-.2-.2-.2-.3-.3l-1.6-2a.4.4,0,0,1-.3-.2l-1.3-1.4c-.8-1.2-2-2.5-2.7-3.7l-.7-1c-1.4-2-2.8-4.2-4-6.3a10.6,10.6,0,0,0-1-1.7c-.6-1.6-1.4-3.2-2-5-.2,0-.2-.3-.3-.5l-1-3-1-3v-1a.8.8,0,0,1-.2-.7l-.3-1.8-.2-1.6v-1.3l-.3-1.8v-4.5c.2-2,.6-4,1-6.3l.8-2.3.6-1.5c0-.3,0-.3.2-.5s.3-.6.5-.8.4-.2.6,0Zm-20,14.7c.6.3.5.8.5,1.2l.2,1.3v.7l.2.7v.7l.2,1a.7.7,0,0,0,.2.6l.5,2.2a6.5,6.5,0,0,0,.6,2.3l1,3,.6,1.4.5,1.2,2.3,4.5,2,3.7.7,1,1.7,2.5a16.3,16.3,0,0,0,1.7,2.2c.2,0,.3.2.4.3a5.3,5.3,0,0,0,1,1.2,1.1,1.1,0,0,1,.4.5,2.2,2.2,0,0,1,.3,1.8c0,1-1,1.5-1.7,1.7l-.7.2c-.3,0-.6-.5-.8-.7l-.8-1a12.7,12.7,0,0,1-1.4-1.7l-3-3.8a67.4,67.4,0,0,1-5-9l-1.3-4L240,146a11.7,11.7,0,0,1-.5-2v-.2l-.2-.4v-.5a1,1,0,0,0-.2-.7v-1.1l-.2-2v-.4l-.2-1.8v-3a2.9,2.9,0,0,0,.3-1v-.5a.8.8,0,0,1,.4-.7h.6ZM224.8,135c.5.3.4.8.4,1.3v2l.2,1.8a.7.7,0,0,0,.2.6v1a.4.4,0,0,0,.2.3v.8a3.8,3.8,0,0,1,.4,1.3l1,3a48.8,48.8,0,0,0,2.8,6.3l1.2,2,.5,1,1.6,2.2,2.3,3,.8,1,.8,1,1.6,1.7,1,1,1,1,.2.2,1,1,.5.5,1.6,1.5a.9.9,0,0,1,.6.3v.2c.3,0,.5.3.7.5h.2l1,1h.2c.3.5,1,.8,1.2,1.2l.4.3.3.3,1,.7c0,.2.4.3.5.4s.3.3.4.4l1,.8,2.4,1.6c.3.2.8.4,1,.8l.2.6a1.9,1.9,0,0,1,0,1.5v.4a1.8,1.8,0,0,1-.6,1l-.5.4c-.2.2-.5,0-1,0a.4.4,0,0,0-.2-.3c-.6,0-1-.6-1.6-1H251l-.7-.4c-.2,0-.3-.3-.6-.4s-.4-.3-.5-.4h-.3l-.6-.5-.8-.5-.8-.6-.6-.5c-.2,0-.3-.2-.5-.3l-.8-.7c-.3,0-.4-.2-.6-.3l-.8-.6a.4.4,0,0,1-.3-.2c0-.2-.4-.3-.5-.5h-.3c0-.2-.3-.3-.4-.5a5.8,5.8,0,0,0-1.5-1.3l-.4-.3a8.3,8.3,0,0,0-1.5-1.7l-.5-.4-1.4-1.6a.2.2,0,0,1-.2-.2l-.7-.7c0-.2-.2-.2-.3-.3s-1.5-1.7-2-2.5a30.1,30.1,0,0,1-3.5-4.7l-.8-1-1-2-1.6-3-1-2.2a6.1,6.1,0,0,0-.5-1.8,7,7,0,0,0-.5-1.8l-.4-1.8v-.8a5.8,5.8,0,0,1-.4-1.8,32.1,32.1,0,0,1-.3-7.6l.3-1.8a.7.7,0,0,1,.4-.8s.4-.2.6,0h.1Z" fill="#3b434f" opacity="0.2" style="isolation:isolate"/></svg>