<svg xmlns="http://www.w3.org/2000/svg" viewBox="0 0 48 48"><path fill="#284996" fill-rule="evenodd" d="M43 42H5c-2.2 0-4-1.8-4-4V17c0-2.2 1.8-4 4-4h15V9c0-2.2 1.8-4 4-4s4 1.8 4 4v4h15c2.2 0 4 1.8 4 4v21c0 2.2-1.8 4-4 4zm-26-7.5v-.8s1.2-.6 2-1.4c.5-.4.8-1.3.8-1.3l.2-3.7c0-2-1-4.3-4-4.3s-4 2.2-4 4.3c0 .8 0 2.8.2 3.7 0 0 .3 1 .8 1.3.8.8 2 1.4 2 1.4V36c0 1.3-1.4 2-2.2 2-2.6 0-3.2 1-3.2 1L9 40h14l-.6-1s-.6-1-3.2-1c-1 0-2.2-.7-2.2-2v-1.5zM26 9c0-1-1-2-2-2s-2 1-2 2v6c0 1 1 2 2 2s2-1 2-2V9zm19 8c0-1-1-2-2-2H28c0 2.2-1.8 4-4 4s-4-1.8-4-4H5c-1 0-2 1-2 2v21c0 1 1 2 2 2h1.8c.2-.6.7-1.5 1.2-2.2 0 0 .8-1.8 5-1.8v-1c-.3-.3-.8-.6-1-1-.3 0-1.2-1-1.5-2.5 0-.5-.5-3-.5-4 0-3.3 1.3-6.5 6-6.5s6 3.2 6 6.4c0 1-.4 3.6-.5 4-.3 1.7-1.2 2.6-1.4 2.7-.2.4-.7.7-1 1v1c4.2 0 5 1.7 5 1.8.5.7 1 1.6 1.2 2.2H43c1 0 2-1 2-2V17zm-5 9H28c-.6 0-1-.4-1-1s.4-1 1-1h12c.6 0 1 .4 1 1s-.4 1-1 1zm-12 4h2c.6 0 1 .4 1 1s-.4 1-1 1h-2c-.6 0-1-.4-1-1s.4-1 1-1zm0 4h6c.6 0 1 .4 1 1s-.4 1-1 1h-6c-.6 0-1-.4-1-1s.4-1 1-1zm4-3c0-.6.4-1 1-1h4c.6 0 1 .4 1 1s-.4 1-1 1h-4c-.6 0-1-.4-1-1zM23 9h2v2h-2V9z" clip-rule="evenodd"/></svg>
