<svg xmlns="http://www.w3.org/2000/svg" viewBox="0 0 512 512"><title>woman</title><path d="M419.4,406.7C399,495.9,294.6,461,259,446.2c-35.6,14.7-140,49.6-160.4-39.6,0,0,36.6.4,25.6-114.4,0,0-39.7-227.3,134.8-208.3v.4c174.5-19,134.8,208.2,134.8,208.2-11,114.7,25.6,114.3,25.6,114.3Z" fill="#3b434f"/><path d="M114.4,515.2s-6.7-90,78-98.4h38V399.2s26.7,11.6,53.8,1.4l.8,16.2h44.4s76,3,72.5,99.3l-287.6-1Z" fill="#fff"/><path d="M401.3,518.8H111.2l1.4-23.5c2.7-46,39-81,80.3-81h28.4a25,25,0,0,0-4.2,4.7H195.3c-40,0-74.8,33.8-77.4,78l-1,16.3H400.4l-.5-16.3c-2.6-44.2-37.5-78-77.4-78H300.7a24,24,0,0,0-3.7-4.6h28c41.5,0,77.7,35,80.3,81l1.5,23.6h-5.2Zm-112.6-100h-1.5v-4.5h1.6v4.5Zm-60-4.5h1.7V419H229a25.2,25.2,0,0,0-.4-4.6Z" fill="#3b434f"/><path d="M272.2,479.5a3,3,0,0,1,3,3,2.9,2.9,0,0,1-3,3,3,3,0,0,1-3-3A3.1,3.1,0,0,1,272.2,479.5Zm0,19.7a2.9,2.9,0,0,1,3,3,3,3,0,0,1-3,3,3.1,3.1,0,0,1-3-3A3,3,0,0,1,272.2,499.2Z" fill="#3b434f"/><path d="M306.8,439.4,285,471.9c-6-18.4-23-11.6-23-11.6v54.3a2.9,2.9,0,0,1-3,2.6,3,3,0,0,1-3-2.7V460.2s-17-6.6-23,11.7l-21.7-32.5s-8.4-21.4,17-30.7v-9.8h4.8v31c.7,5.2,4.4,20.3,26,25.3,21.6-5,25.3-20,26-25.4v-31h4.7v10c25.5,9.2,17,30.6,17,30.6Zm-74,3a37.8,37.8,0,0,1-3-4.7s-1.5-5.3-1.5-7.7V419.2c-.3-5-1.3-5-1.3-5-19,9.4-10.6,24-10.6,24l15.7,24.7c6.3-10.4,13-8.5,13-8.5a29.7,29.7,0,0,1-12.3-12Zm58.2-28s-1,0-1.3,4.8V430c0,2.4-1.6,7.7-1.6,7.7a30.9,30.9,0,0,1-2.7,4.6,29.8,29.8,0,0,1-12.2,12.2s6.7-2,13,8.5l15.7-24.8s8.3-14.6-10.7-24Z" fill="#3b434f"/><path d="M259.2,129.7c53,0,95,49.6,93.6,109.2l-1.4,63.3c-1.3,56.2-42.6,100.5-92.2,100.5s-91-44.3-92-100.5l-1.6-63.3C164.2,179.3,206.1,129.7,259.2,129.7Z" fill="#fff"/><path d="M357,236.9l-1.4,66C354.2,361.2,311,407.2,259,407.2S163.8,361,162.4,302.6l-1.5-66c-1.5-62,42.4-113.5,98-113.5s99.5,51.7,98,113.7ZM259,130.2c-52.4,0-93.7,49-92.3,108.2l1.4,63c1.2,55.6,41.8,99.6,90.8,99.6s89.6-44,91-99.7l1.3-62.8c1.5-59-40-108.3-92.2-108.3Z" fill="#3b434f"/><path d="M305,340.5c-7.7,6.8-25.2,13.2-45.6,13.2s-38-6.4-45.6-13.2c0,0-.8-2.2.3-3.3a4.5,4.5,0,0,1,3.2-1c7.7,6.8,21.8,12.3,42.2,12.3s34.5-5.5,42.3-12.2c0,0,2-.7,2.8.3a3.5,3.5,0,0,1,.6,4Zm-59.7,23.4h27.4v4.3H245.3v-4.3ZM212,251.2a8.7,8.7,0,0,1,8.6,8.6,8.5,8.5,0,0,1-17,.1,8.6,8.6,0,0,1,8.6-8.5Zm94.8,0a8.6,8.6,0,0,1,8.5,8.6,8.5,8.5,0,0,1-8.5,8.5,8.4,8.4,0,0,1-8.5-8.4,8.5,8.5,0,0,1,8.5-8.5Z" fill="#3b434f"/><path d="M211.6,282.8c8.3,0,15,.5,15,10s-6.7,9.7-15,9.7-15-1.8-15-9.8,6.8-10,15-10Zm99,0c8.3,0,15,.5,15,10s-6.7,9.7-15,9.7-15-1.8-15-9.8,6.8-10,15-10Z" fill="#f5f3ef"/><path d="M282,235.8l2.5,3,1.5,2s27.2-15,46,2.4l2,1s-4.6-25-45.3-10.4C286.7,234.4,284.3,235,282,235.8Zm-47,0-2.5,3.2-1.5,2s-27.2-15-46,2.2l-2,1s4.6-25,45.3-10.4C230.3,234.4,232.7,235,235,235.8Zm115.3-36.6h18v42.7h-18Z" fill="#3b434f"/><path d="M153.8,237.9s18.8-36.2,55-30.5c0,0,1.3,8.3,9,17.2,0,0,8.6-20.6,34.7-26.4,20.8-4.6,40.6-21,40.6-21s3.2,32.8,43.7,42c0,0,35.5,4.4,33-15.2S347.4,99,253.1,112s-116.5,47-100,125" fill="#3b444f"/><path d="M159.8,246.5a9.5,9.5,0,0,0-3-1.4,12,12,0,0,0-3.6-.8H151l-2.3.6a12.8,12.8,0,0,0-8.2,7.6,24.6,24.6,0,0,0-1.8,8.7v6l1,7a53.1,53.1,0,0,0,2.4,16.8c2.7,8.8,9,19.5,20.6,22.6-1.4-22.2-1.4-44.8-2.8-67Z" fill="#f7fbfb"/><path d="M162,247.4s-20-6.2-19.3,14.5c0,0,3,30,4.3,32.8,0,0,8,17.6,21,18.3h0v5.7s-23-3-27.3-29.5l-3.5-24s-2.7-32,23.7-23.8h0l1,6" fill="#3b434f"/><path d="M155.5,289.2a3.2,3.2,0,0,1-4.2,0l-2-21s2.8-10.3,15-5l.3,6s-10.7-3.7-10.5,1l1.5,19Z" fill="#3b434f"/><path d="M357.8,246.6a6.8,6.8,0,0,1,3-1.5,12.1,12.1,0,0,1,3.6-.7h2.2a10.3,10.3,0,0,1,2.4.5,12.7,12.7,0,0,1,8.2,7.7,24.1,24.1,0,0,1,1.8,8.7v5.8l-1,7.2a53.1,53.1,0,0,1-2.4,16.7c-2.6,8.6-9,19.3-20.6,22.4,1.4-22.2,1.4-44.8,2.8-67Z" fill="#f7fbfb"/><path d="M355.5,247.5s20.2-6.3,19.5,14.4c0,0-3,30-4.3,33,0,0-8,17.4-21,18h0l-.2,5.8s23-3,27.5-29.4l3.5-24s2.8-31.8-23.8-23.7h0l-1.2,6" fill="#3b434f"/><path d="M362.2,289.2a3.5,3.5,0,0,0,2,1,4.4,4.4,0,0,0,2.2-1l2-21s-2.8-10.3-15-4.8l-.4,6s10.8-3.8,10.6,1-1.4,18.8-1.4,18.8Z" fill="#3b434f"/><path d="M267,287.5h1.4c3,4.2,4.3,10.7,6,16.2a11.7,11.7,0,0,1-.5,6c-1.7,4.5-6.8,4.4-11,6.4a10.7,10.7,0,0,1-3.4,1.6c-1-.8-2-1-2.5-2.3s.4-2.6,1.6-3.2,8.6-2.2,9.4-4.2.3-4.4,0-5.5c-1-3-1.3-5.5-2.4-8s-2-3.8-1.3-6a8.2,8.2,0,0,0,2.6-1Z" fill="#3b434f"/></svg>